%
M48
M72
T01C0.01378
T02C0.03150
T03C0.03200
T04C0.04400
T05C0.05200
T06C0.07000
T07C0.07087
T08C0.09843
T09C0.12598
%
T01
X341600Y84163
X465213Y114063
X474200Y98600
X508931Y94263
X577400Y50963
X580500Y20363
X397957Y148549
X496235Y176841
X460963Y205363
T02
X373794Y191152
X373794Y181152
X373794Y171152
X373794Y161152
X373794Y151152
X373794Y141152
X373794Y131152
X373794Y121152
X373794Y111152
X373794Y101152
X373794Y91152
X373794Y81152
X373794Y71152
X373794Y61152
X373794Y51152
X313794Y51152
X313794Y61152
X313794Y71152
X313794Y81152
X313794Y91152
X313794Y101152
X313794Y111152
X313794Y121152
X313794Y131152
X313794Y141152
X313794Y151152
X313794Y161152
X313794Y171152
X313794Y181152
X313794Y191152
T03
X386825Y187569
X405113Y193140
X408026Y186289
X428813Y182648
X423813Y175148
X433813Y175148
X430762Y165030
X430880Y157707
X425880Y150207
X435880Y150207
X432396Y139734
X444168Y127963
X454168Y127963
X449168Y120463
X481136Y127589
X472396Y139734
X468498Y148100
X470762Y165030
X481648Y164813
X481648Y174813
X506668Y175463
X506668Y185600
X488754Y185679
X497236Y195639
X506668Y195600
X531668Y194963
X531668Y180963
X506668Y165463
X508498Y148100
X531668Y149213
X536668Y141713
X541668Y149213
X552524Y152362
X566668Y168463
X594168Y170463
X601668Y175463
X594168Y180463
X566668Y182463
X592524Y152362
X521136Y127589
X520585Y105561
X480585Y105561
X454640Y101033
X444640Y101033
X449640Y93533
X432376Y90797
X407042Y98356
X397022Y98455
X386431Y98652
X392376Y90797
X387416Y80896
X387416Y40896
X386431Y138652
X397022Y138455
X407042Y138356
X408026Y146289
X386825Y147569
X397140Y159045
X448754Y185679
X445113Y193140
X457241Y195011
X444955Y203278
X404955Y203278
X397140Y199045
T04
X616412Y191526
X616412Y151526
T05
X606195Y141456
X606195Y52856
T06
X373794Y41152
X313794Y41152
X313794Y201152
X373794Y201152
T07
X432888Y78415
X449424Y78415
X465959Y78415
X482494Y78415
X499030Y78415
X515565Y78415
X532101Y78415
X532101Y56762
X515565Y56762
X499030Y56762
X482494Y56762
X465959Y56762
X449424Y56762
X432888Y56762
T08
X295743Y17805
X630388Y17805
X630388Y204813
X295743Y204813
T09
X415172Y40226
X549817Y40226
M30
