G75*
%MOIN*%
%OFA0B0*%
%FSLAX25Y25*%
%IPPOS*%
%LPD*%
%AMOC8*
5,1,8,0,0,1.08239X$1,22.5*
%
%ADD10C,0.10643*%
%ADD11C,0.07800*%
%ADD12R,0.05950X0.05950*%
%ADD13C,0.05950*%
%ADD14OC8,0.07100*%
%ADD15C,0.07100*%
%ADD16OC8,0.06000*%
%ADD17C,0.07400*%
%ADD18C,0.10800*%
%ADD19C,0.01200*%
%ADD20C,0.11430*%
%ADD21C,0.13398*%
%ADD22C,0.03778*%
D10*
X0295743Y0017805D03*
X0630388Y0017805D03*
X0630388Y0204813D03*
X0295743Y0204813D03*
D11*
X0313794Y0201152D03*
X0373794Y0201152D03*
X0373794Y0041152D03*
X0313794Y0041152D03*
D12*
X0313794Y0191152D03*
D13*
X0313794Y0181152D03*
X0313794Y0171152D03*
X0313794Y0161152D03*
X0313794Y0151152D03*
X0313794Y0141152D03*
X0313794Y0131152D03*
X0313794Y0121152D03*
X0313794Y0111152D03*
X0313794Y0101152D03*
X0313794Y0091152D03*
X0313794Y0081152D03*
X0313794Y0071152D03*
X0313794Y0061152D03*
X0313794Y0051152D03*
X0373794Y0051152D03*
X0373794Y0061152D03*
X0373794Y0071152D03*
X0373794Y0081152D03*
X0373794Y0091152D03*
X0373794Y0101152D03*
X0373794Y0111152D03*
X0373794Y0121152D03*
X0373794Y0131152D03*
X0373794Y0141152D03*
X0373794Y0151152D03*
X0373794Y0161152D03*
X0373794Y0171152D03*
X0373794Y0181152D03*
X0373794Y0191152D03*
D14*
X0531668Y0180963D03*
X0566668Y0182463D03*
D15*
X0566668Y0168463D03*
X0531668Y0194963D03*
D16*
X0506668Y0195600D03*
X0506668Y0185600D03*
X0488754Y0185679D03*
X0506668Y0175463D03*
X0481648Y0174813D03*
X0481648Y0164813D03*
X0470762Y0165030D03*
X0468498Y0148100D03*
X0472396Y0139734D03*
X0481136Y0127589D03*
X0454168Y0127963D03*
X0444168Y0127963D03*
X0449168Y0120463D03*
X0480585Y0105561D03*
X0454640Y0101033D03*
X0444640Y0101033D03*
X0449640Y0093533D03*
X0432376Y0090797D03*
X0407042Y0098356D03*
X0397022Y0098455D03*
X0386431Y0098652D03*
X0392376Y0090797D03*
X0387416Y0080896D03*
X0387416Y0040896D03*
X0520585Y0105561D03*
X0521136Y0127589D03*
X0536668Y0141713D03*
X0541668Y0149213D03*
X0531668Y0149213D03*
X0508498Y0148100D03*
X0506668Y0165463D03*
X0552524Y0152362D03*
X0592524Y0152362D03*
X0594168Y0170463D03*
X0601668Y0175463D03*
X0594168Y0180463D03*
X0448754Y0185679D03*
X0445113Y0193140D03*
X0444955Y0203278D03*
X0428813Y0182648D03*
X0423813Y0175148D03*
X0433813Y0175148D03*
X0430762Y0165030D03*
X0430880Y0157707D03*
X0425880Y0150207D03*
X0435880Y0150207D03*
X0432396Y0139734D03*
X0408026Y0146289D03*
X0407042Y0138356D03*
X0397022Y0138455D03*
X0386431Y0138652D03*
X0386825Y0147569D03*
X0397140Y0159045D03*
X0408026Y0186289D03*
X0405113Y0193140D03*
X0397140Y0199045D03*
X0404955Y0203278D03*
X0386825Y0187569D03*
D17*
X0616412Y0191526D03*
X0616412Y0151526D03*
D18*
X0611195Y0141456D02*
X0601195Y0141456D01*
X0601195Y0052856D02*
X0611195Y0052856D01*
D19*
X0495421Y0195995D02*
X0494821Y0196595D01*
X0496205Y0198023D01*
X0498192Y0198054D01*
X0499620Y0196670D01*
X0499651Y0194683D01*
X0498267Y0193255D01*
X0496280Y0193224D01*
X0494852Y0194608D01*
X0494821Y0196595D01*
X0495727Y0196236D01*
X0496592Y0197129D01*
X0497833Y0197148D01*
X0498726Y0196283D01*
X0498745Y0195042D01*
X0497880Y0194149D01*
X0496639Y0194130D01*
X0495746Y0194995D01*
X0495727Y0196236D01*
X0496633Y0195877D01*
X0496979Y0196235D01*
X0497474Y0196242D01*
X0497832Y0195896D01*
X0497839Y0195401D01*
X0497493Y0195043D01*
X0496998Y0195036D01*
X0496640Y0195382D01*
X0496633Y0195877D01*
X0455426Y0195367D02*
X0454826Y0195967D01*
X0456210Y0197395D01*
X0458197Y0197426D01*
X0459625Y0196042D01*
X0459656Y0194055D01*
X0458272Y0192627D01*
X0456285Y0192596D01*
X0454857Y0193980D01*
X0454826Y0195967D01*
X0455732Y0195608D01*
X0456597Y0196501D01*
X0457838Y0196520D01*
X0458731Y0195655D01*
X0458750Y0194414D01*
X0457885Y0193521D01*
X0456644Y0193502D01*
X0455751Y0194367D01*
X0455732Y0195608D01*
X0456638Y0195249D01*
X0456984Y0195607D01*
X0457479Y0195614D01*
X0457837Y0195268D01*
X0457844Y0194773D01*
X0457498Y0194415D01*
X0457003Y0194408D01*
X0456645Y0194754D01*
X0456638Y0195249D01*
D20*
X0449424Y0078415D03*
X0465959Y0078415D03*
X0482494Y0078415D03*
X0499030Y0078415D03*
X0515565Y0078415D03*
X0532101Y0078415D03*
X0532101Y0056762D03*
X0515565Y0056762D03*
X0499030Y0056762D03*
X0482494Y0056762D03*
X0465959Y0056762D03*
X0449424Y0056762D03*
X0432888Y0056762D03*
X0432888Y0078415D03*
D21*
X0415172Y0040226D03*
X0549817Y0040226D03*
D22*
X0577400Y0050963D03*
X0580500Y0020363D03*
X0508931Y0094263D03*
X0474200Y0098600D03*
X0465213Y0114063D03*
X0397957Y0148549D03*
X0496235Y0176841D03*
X0460963Y0205363D03*
X0341600Y0084163D03*
M02*
